<svg xmlns="http://www.w3.org/2000/svg" viewBox="0 0 32 32"><rect width="32" height="32" rx="8" fill="#0f8f6f"/><path d="M16 6.5a9.5 9.5 0 0 0-8.2 14.3L6.5 25.5l4.8-1.3A9.5 9.5 0 1 0 16 6.5z" fill="none" stroke="#fff" stroke-width="2" stroke-linejoin="round"/><path d="M12.6 11.8c.3-.6.6-.6.9-.6h.6c.2 0 .4 0 .6.5l.8 1.9c.1.2.1.4 0 .6l-.4.6-.4.4c-.1.1-.2.3-.1.5.3.6.8 1.3 1.4 1.8.7.6 1.3.9 1.8 1.1.2.1.4.1.5-.1l.7-.8c.2-.2.3-.2.5-.1l1.8.9c.2.1.4.2.4.3.1.2.1.9-.2 1.6-.3.7-1.6 1.3-2.2 1.3-.6.1-1.2.3-3.9-.8-3.3-1.3-5.3-4.7-5.5-4.9-.2-.2-1.3-1.7-1.3-3.3 0-1.5.8-2.3 1.1-2.6z" fill="#fff"/></svg>
